<svg xmlns="http://www.w3.org/2000/svg" width="89" height="82" viewBox="0 0 89 82">
    <defs>
        <filter id="o9e82zljda">
            <feColorMatrix in="SourceGraphic" values="0 0 0 0 0.193954 0 0 0 0 0.059557 0 0 0 0 0.059557 0 0 0 1.000000 0"/>
        </filter>
        <filter id="ukaz9rpa5b">
            <feColorMatrix in="SourceGraphic" values="0 0 0 0 0.847000 0 0 0 0 0.847000 0 0 0 0 0.847000 0 0 0 1.000000 0"/>
        </filter>
    </defs>
    <g fill="none" fill-rule="evenodd" filter="url(#o9e82zljda)" transform="translate(-1127 -591)">
        <g filter="url(#ukaz9rpa5b)" transform="translate(1060 592)">
            <path fill="#000" fill-rule="nonzero" stroke="#979797" d="M151.253 40.816h-3.019c-.282-4.59-1.4-9.02-3.335-13.185-.295-.637-1.052-.913-1.69-.618-.637.296-.914 1.052-.618 1.69 1.778 3.828 2.815 7.897 3.093 12.113h-58.27c-.703 0-1.272.57-1.272 1.272 0 .703.569 1.272 1.271 1.272h63.84c.644 0 1.166.523 1.166 1.167v1.552c0 .644-.522 1.168-1.166 1.168H71.711c-.644 0-1.167-.524-1.167-1.168v-1.552c0-.644.523-1.167 1.167-1.167h9.773c.703 0 1.273-.57 1.273-1.272 0-.703-.57-1.272-1.273-1.272h-4.205c.561-8.45 4.185-16.312 10.293-22.258 5.886-5.73 13.493-9.103 21.622-9.638h.014c.346-.023.688-.04 1.027-.053l.202-.007.36-.01c.228-.003.456-.007.685-.007.304 0 .608.006.91.014l.27.008c.233.008.466.02.699.032l.37.022c10.445.686 20.053 6.117 26.033 14.826.397.578 1.19.726 1.768.328.58-.397.727-1.19.329-1.769-5.884-8.57-15.042-14.183-25.164-15.63.634-.985.99-2.144.99-3.359 0-.69-.308-1.965-2.374-2.726C114.28.21 112.92 0 111.482 0c-1.44 0-2.8.21-3.832.59-2.066.76-2.374 2.034-2.374 2.725 0 1.211.355 2.368.986 3.351-7.685 1.087-14.813 4.567-20.465 10.068-6.602 6.427-10.503 14.939-11.067 24.081h-3.02c-2.045.001-3.71 1.666-3.71 3.712v1.552c0 2.047 1.665 3.712 3.71 3.712h13.705c-.684.468-1.34.994-1.953 1.577l-.025.024c-.04.036-.077.076-.11.117l-6.04 7.335c-.758-.481-1.655-.657-2.54-.487-.923.177-1.721.702-2.248 1.48l-2.375 3.502c-1.086 1.603-.667 3.791.934 4.879L87.311 79.26c.59.4 1.27.608 1.968.608.221 0 .445-.021.668-.064.922-.176 1.72-.702 2.247-1.48l2.375-3.502c1.086-1.602.668-3.79-.933-4.878l-.093-.063c1.131-1.284 2.64-2.205 4.28-2.584 3.457-.8 7.526-.285 10.285.172 3.414.565 7 .372 10.369-.559l4.684-1.294c3.12-.863 5.992-2.315 8.536-4.318.02-.015.038-.03.056-.047l8.042-7.122c1.371-1.05 1.67-2.866 1.197-4.338h10.261c2.046 0 3.71-1.665 3.71-3.71v-1.554c0-2.046-1.664-3.71-3.71-3.71zM111.482 2.544c2.142 0 3.426.53 3.661.825-.017 1.207-.628 2.32-1.62 2.988-.251-.013-.498-.024-.744-.033l-.249-.009c-.355-.01-.705-.016-1.048-.016-.244 0-.492.003-.742.009l-.363.009-.437.015c-.167.008-.333.015-.499.024-.993-.667-1.603-1.78-1.62-2.987.235-.294 1.519-.825 3.661-.825h0zm9.123 47.86c-.095-.214-.209-.419-.337-.613h12.203l-5.276 3.492-7.521 2.175-.255.006c1.447-1.206 1.975-3.267 1.186-5.06h0zm-13.795-.613l-1.836.383-1.42-.383h3.256zM92.463 73.394l-2.374 3.503c-.146.215-.366.36-.62.409-.255.048-.514-.005-.728-.151L72.488 66.113c-.442-.3-.558-.903-.258-1.345l2.376-3.503c.145-.215.365-.36.62-.408.061-.012.123-.018.184-.018.192 0 .38.057.542.168l.878.596s0 0 0 0l15.376 10.445c.442.3.557.904.257 1.346h0zm45.771-21.274c-.03.022-.06.046-.088.07l-8.05 7.132c-2.27 1.78-4.832 3.073-7.612 3.84l-4.684 1.295c-3.017.834-6.224 1.007-9.275.502-2.974-.492-7.377-1.044-11.276-.14-2.259.522-4.32 1.82-5.82 3.624l-12.025-8.168 5.836-7.087c2.207-2.084 5.007-3.321 7.687-3.397h.052c.831-.014 1.71.23 2.642.492.187.051.373.104.56.154l8.424 2.273c.193.051.395.057.591.016l11.033-2.3c.5-.104 1.025-.002 1.441.28.269.182.479.433.607.724.378.858.022 1.866-.824 2.3l-3.764 1.994c-.52.276-.783.873-.635 1.444.148.57.668.96 1.258.952l5.584-.121c.11-.003.22-.02.325-.05l7.867-2.276c.124-.035.242-.09.35-.16l7.936-5.254c.666-.412 1.552-.75 2.024-.054.368.541.376 1.516-.164 1.915z"/>
        </g>
    </g>
</svg>
