<svg xmlns="http://www.w3.org/2000/svg" width="71" height="80" viewBox="0 0 71 80">
    <defs>
        <filter id="ket3j6btwa">
            <feColorMatrix in="SourceGraphic" values="0 0 0 0 0.193954 0 0 0 0 0.059557 0 0 0 0 0.059557 0 0 0 1.000000 0"/>
        </filter>
    </defs>
    <g fill="none" fill-rule="evenodd" filter="url(#ket3j6btwa)" transform="translate(-1522 -592)">
        <g fill="#000" fill-rule="nonzero">
            <path d="M70.613 20.172v-.003-.013c-.001-.054-.003-.108-.009-.162-.002-.027-.007-.053-.011-.08-.004-.03-.008-.061-.014-.092-.007-.035-.016-.068-.025-.102-.005-.022-.01-.045-.017-.067-.01-.035-.023-.069-.035-.103l-.023-.062c-.012-.032-.027-.062-.042-.093-.01-.023-.02-.046-.033-.068-.013-.026-.029-.05-.043-.076-.016-.026-.03-.052-.048-.078l-.041-.058c-.02-.029-.041-.057-.064-.085l-.04-.046c-.025-.029-.05-.057-.077-.084l-.047-.044c-.026-.025-.052-.05-.08-.074l-.07-.053c-.023-.017-.045-.035-.069-.051-.043-.03-.087-.056-.132-.082l-.017-.01-.003-.002-.01-.005L36.232.223c-.542-.297-1.198-.297-1.74 0L1.05 18.585l-.031.02c-.012.008-.025.013-.037.02-.026.016-.05.035-.075.052-.03.02-.06.04-.09.063-.034.027-.066.056-.099.085-.026.023-.054.047-.079.072-.031.031-.06.065-.088.098-.023.027-.046.052-.067.08-.028.036-.052.074-.076.112-.018.028-.038.054-.054.083-.024.042-.044.086-.065.13-.013.027-.028.053-.04.081-.02.053-.038.108-.055.163l-.02.06c-.02.077-.036.155-.046.234l-.004.055c-.005.058-.012.117-.012.177v30.615c0 .998.81 1.807 1.808 1.807s1.807-.809 1.807-1.807v-27.63l6.513 3.408v9.764c0 .998.81 1.807 1.807 1.807.999 0 1.808-.81 1.808-1.807V28.85l9.17 4.915v14.591l-10.124-5.426c-.88-.471-1.975-.14-2.446.74-.472.88-.14 1.975.739 2.446l12.785 6.852c.267.143.56.214.854.214.321 0 .643-.085.928-.256.545-.327.879-.915.879-1.55V35.143l6.916 3.619V75.1L2.753 59.093c-.885-.46-1.976-.116-2.437.77-.46.886-.115 1.977.77 2.437L34.53 79.679c.022.012.045.02.068.03l.087.04c.045.017.09.033.136.047.029.01.057.019.085.026.051.013.103.023.154.032.025.004.049.01.073.013.077.01.153.015.23.015.077 0 .153-.006.23-.015.024-.003.048-.01.073-.014.051-.008.102-.018.153-.031.03-.008.057-.017.086-.026.046-.015.09-.03.136-.048.03-.012.058-.026.087-.04.023-.01.046-.018.068-.03L69.64 62.3c.599-.312.974-.93.974-1.604v-40.51-.014zM16.33 25.62l12.473-6.564 8.327 4.353-11.797 6.89-9.003-4.68zM37.17 75.1V38.763l23.85-12.48c.885-.463 1.226-1.555.764-2.44-.463-.883-1.555-1.225-2.44-.763L35.476 35.57l-6.35-3.3 12.648-7.387c.568-.332.911-.946.896-1.603-.016-.658-.387-1.255-.97-1.56l-12.063-6.305c-.526-.275-1.154-.275-1.679.002L12.424 23.59l-6.669-3.465L35.363 3.869 67 21.239v38.36l-29.829 15.5z" transform="translate(1522 592)"/>
            <path d="M60.868 54.665l-14.275 7.402c-.886.46-1.232 1.55-.773 2.436.322.62.953.976 1.606.976.28 0 .565-.066.83-.204l14.276-7.401c.886-.46 1.232-1.55.773-2.436-.46-.886-1.55-1.232-2.437-.773zM60.868 46.346l-14.275 7.401c-.886.46-1.232 1.55-.773 2.436.322.62.953.976 1.606.976.28 0 .565-.065.83-.203l14.276-7.402c.886-.46 1.232-1.55.773-2.436-.46-.886-1.55-1.231-2.437-.772zM60.868 38.026l-8.17 4.236c-.885.46-1.231 1.55-.772 2.436.322.62.953.976 1.606.976.28 0 .565-.066.83-.203l8.17-4.236c.886-.46 1.232-1.55.773-2.436-.46-.886-1.55-1.232-2.437-.773z" transform="translate(1522 592)"/>
        </g>
    </g>
</svg>
