<svg xmlns="http://www.w3.org/2000/svg" width="80" height="80" viewBox="0 0 80 80">
    <defs>
        <filter id="72bxau2gxa">
            <feColorMatrix in="SourceGraphic" values="0 0 0 0 0.193954 0 0 0 0 0.059557 0 0 0 0 0.059557 0 0 0 1.000000 0"/>
        </filter>
    </defs>
    <g fill="none" fill-rule="evenodd" filter="url(#72bxau2gxa)" transform="translate(-353 -592)">
        <path fill="#000" fill-rule="nonzero" d="M433 601.519c.026-2.553-.954-4.954-2.76-6.76-1.782-1.781-4.143-2.759-6.659-2.759h-.1c-2.554.027-4.933 1.056-6.701 2.898l-14.003 14.592-36.64-12.126-10.82 10.82 30.62 18.854-12.6 13.13-9.889-1.624L353 648.992l17.04 5.968 5.968 17.04 10.448-10.448-1.623-9.89 13.129-12.598 18.854 30.62 10.82-10.82-12.125-36.641 14.591-14.003c1.842-1.768 2.871-4.148 2.898-6.701zm-6.147 3.316l-16.727 16.052 12.147 36.704-4.576 4.576-18.789-30.515-19.105 18.335 1.633 9.95-3.468 3.467-4.246-12.126-12.126-4.246 3.468-3.468 9.95 1.633 18.334-19.105-30.515-18.789 4.576-4.576 36.704 12.147 16.052-16.727c.888-.925 2.083-1.441 3.364-1.455h.05c1.263 0 2.449.49 3.344 1.385.906.907 1.398 2.112 1.385 3.394-.013 1.281-.53 2.476-1.455 3.364z"/>
    </g>
</svg>
