<svg xmlns="http://www.w3.org/2000/svg" width="166" height="166" viewBox="0 0 166 166">
    <defs>
        <linearGradient id="ltdhok4w5a" x1="50%" x2="50%" y1=".251%" y2="100%">
            <stop offset="0%" stop-color="#FFF"/>
            <stop offset="100%" stop-color="#FFF8BB"/>
        </linearGradient>
        <filter id="72octucyub">
            <feColorMatrix in="SourceGraphic" values="0 0 0 0 0.779155 0 0 0 0 0.249024 0 0 0 0 0.249024 0 0 0 1.000000 0"/>
        </filter>
    </defs>
    <g fill="none" fill-rule="evenodd">
        <rect width="162" height="162" x="2" y="2" fill="url(#ltdhok4w5a)" stroke="#C74040" stroke-width="4" rx="8"/>
        <g filter="url(#72octucyub)">
            <g fill="#000" fill-rule="nonzero">
                <path d="M47.179 105.125c-4.747 0-8.609-3.825-8.609-8.526 0-4.702 3.862-8.527 8.609-8.527 4.746 0 8.608 3.825 8.608 8.527 0 4.701-3.862 8.526-8.608 8.526zm0-12.99c-2.486 0-4.507 2.002-4.507 4.464 0 2.461 2.022 4.464 4.507 4.464s4.506-2.003 4.506-4.464c0-2.462-2.021-4.464-4.506-4.464zM70.137 105.125c-4.747 0-8.609-3.825-8.609-8.526 0-4.702 3.862-8.527 8.609-8.527 4.746 0 8.608 3.825 8.608 8.527 0 4.701-3.862 8.526-8.608 8.526zm0-12.99c-2.486 0-4.507 2.002-4.507 4.464 0 2.461 2.022 4.464 4.507 4.464s4.507-2.003 4.507-4.464c0-2.462-2.022-4.464-4.507-4.464zM93.095 105.125c-4.747 0-8.609-3.825-8.609-8.526 0-4.702 3.862-8.527 8.609-8.527 4.746 0 8.608 3.825 8.608 8.527 0 4.701-3.862 8.526-8.608 8.526zm0-12.99c-2.485 0-4.507 2.002-4.507 4.464 0 2.461 2.022 4.464 4.507 4.464s4.507-2.003 4.507-4.464c0-2.462-2.022-4.464-4.507-4.464z" transform="translate(13 18)"/>
                <path d="M137.95 112.282h-4.617v-68.59c0-4.626-3.8-8.39-8.47-8.39 0 0-21.063.004-21.127.01-1.608-1.912-3.952-3.196-6.596-3.425l.027-4.82c0-14.842-12.19-26.915-27.173-26.915C55.01.152 42.82 12.225 42.82 27.066l-.027 4.826c-2.617.244-4.935 1.523-6.53 3.42-.063-.006-.128-.01-.193-.01H15.41c-4.67 0-8.47 3.764-8.47 8.39v68.59H2.05c-1.132 0-2.05.909-2.05 2.03v9.428c0 3.369 2.766 6.109 6.167 6.109h88.965c1.132 0 2.05-.91 2.05-2.031 0-1.122-.918-2.032-2.05-2.032H6.167c-1.139 0-2.065-.917-2.065-2.046v-7.396H31.08c1.133 0 2.05-.91 2.05-2.031 0-1.122-.917-2.031-2.05-2.031H20.612V50.408c0-.863.708-1.564 1.579-1.564h15.314l.034-.002c1.633 1.339 3.714 2.156 5.984 2.199C46.485 62.724 57.178 71.4 69.88 71.4c4.388 0 8.724-1.057 12.588-3.059 1.355 2.442 3.976 4.102 6.982 4.102 3.68 0 6.783-2.486 7.691-5.85l2.536-1.317c2.239-1.163 3.482-3.606 3.094-6.08l-1.496-9.523c.416-.248.812-.525 1.184-.83h15.35c.871 0 1.58.701 1.58 1.563v61.875H39.283c-1.133 0-2.05.909-2.05 2.03 0 1.123.917 2.032 2.05 2.032h12.034c.929 3.867 4.442 6.752 8.626 6.752h20.112c4.184 0 7.697-2.885 8.626-6.752h47.216v7.397c0 1.128-.926 2.045-2.065 2.045h-30.498c-1.133 0-2.051.91-2.051 2.032 0 1.121.918 2.03 2.05 2.03h30.499c3.4 0 6.167-2.74 6.167-6.108v-9.427c0-1.122-.918-2.031-2.05-2.031zm-36.071-70.836c0 2.836-2.164 5.177-4.941 5.496.074-.809.115-1.623.115-2.441l.06-8.524c2.692.396 4.766 2.694 4.766 5.47zM69.994 4.214c11.979 0 21.851 9.09 22.964 20.67-4.063-1.857-7.695-4.565-10.624-7.94l-.278-.32c-.613-.707-1.633-.91-2.474-.492l-1.902.943c-8.38 4.157-17.342 6.86-26.64 8.033l-4.067.513c.756-11.93 10.79-21.407 23.021-21.407zM16.51 50.408v61.874h-5.468v-68.59c0-2.386 1.96-4.327 4.368-4.327h18.842c-.15.67-.232 1.366-.232 2.081 0 1.173.214 2.296.604 3.335H22.19c-3.132 0-5.68 2.524-5.68 5.627zm21.611-8.962c0-2.733 2.012-5.004 4.644-5.45l-.058 8.49c0 .816.039 1.622.11 2.42-2.658-.426-4.696-2.709-4.696-5.46zm31.76 25.893c-12.722 0-23.073-10.252-23.073-22.838l.102-14.776 4.65-.587c9.756-1.231 19.162-4.068 27.957-8.43l.49-.243c3.614 3.894 8.084 6.934 13.05 8.878l-.105 15.144c0 4.335-1.23 8.545-3.555 12.189-4.274.028-7.757 3.41-7.9 7.615-.134.042-.266.097-.393.167-3.411 1.885-7.292 2.88-11.224 2.88zm19.57 1.042c-2.128 0-3.86-1.714-3.86-3.822s1.732-3.822 3.86-3.822c2.127 0 3.858 1.714 3.858 3.822s-1.73 3.822-3.859 3.822zm9.267-8.56c.118.756-.262 1.502-.946 1.857l-.767.399c-.61-1.814-1.865-3.336-3.497-4.298 1.219-2.121 2.136-4.386 2.73-6.736l.051.002c.352 0 .7-.02 1.042-.056l1.386 8.832zm19.091-15.04h-12.432c.39-1.039.604-2.162.604-3.335 0-.715-.082-1.41-.233-2.081h19.115c2.41 0 4.369 1.94 4.369 4.326v68.59h-5.742V50.408c0-3.102-2.549-5.626-5.68-5.626zm-37.754 74.253h-20.11c-1.895 0-3.535-1.1-4.303-2.69h28.716c-.768 1.59-2.408 2.69-4.303 2.69z" transform="translate(13 18)"/>
                <path d="M58.008 43.939c-1.133 0-2.05.91-2.05 2.031v1.783c0 1.121.917 2.03 2.05 2.03 1.133 0 2.05-.909 2.05-2.03V45.97c0-1.122-.917-2.031-2.05-2.031zM82.768 47.753V45.97c0-1.122-.917-2.031-2.05-2.031-1.133 0-2.051.91-2.051 2.031v1.783c0 1.121.918 2.03 2.05 2.03 1.134 0 2.051-.909 2.051-2.03zM73.789 51.949c-.99-.544-2.24-.19-2.788.791-.209.373-.605.605-1.035.605-.428 0-.824-.23-1.033-.602-.55-.98-1.8-1.332-2.79-.786-.989.546-1.344 1.783-.793 2.763.933 1.658 2.702 2.687 4.617 2.687 1.92 0 3.69-1.033 4.622-2.698.548-.98.19-2.217-.8-2.76zM58.648 36.093c-2.536-.223-5.01.812-6.62 2.771-.714.87-.58 2.15.298 2.858.38.306.838.455 1.293.455.596 0 1.187-.256 1.592-.75.747-.91 1.896-1.392 3.074-1.288 1.13.1 2.124-.726 2.225-1.843.1-1.117-.734-2.104-1.862-2.203zM81.648 40.14c1.178-.106 2.327.377 3.074 1.288.406.493.997.75 1.593.75.454 0 .912-.15 1.292-.456.879-.708 1.012-1.987.297-2.858-1.608-1.958-4.082-2.994-6.619-2.77-1.128.099-1.961 1.085-1.861 2.202.1 1.118 1.097 1.943 2.224 1.844zM84.63 82.1c1.133 0 2.051-.91 2.051-2.032 0-1.122-.918-2.031-2.05-2.031H55.369c-1.132 0-2.05.91-2.05 2.031 0 1.122.918 2.031 2.05 2.031h29.262z" transform="translate(13 18)"/>
            </g>
        </g>
    </g>
</svg>
