<svg xmlns="http://www.w3.org/2000/svg" xmlns:xlink="http://www.w3.org/1999/xlink" width="1920" height="736" viewBox="0 0 1920 736">
    <defs>
        <path id="hs5o7j034a" d="M0 0H1920V736H0z"/>
    </defs>
    <g fill="none" fill-rule="evenodd">
        <mask id="gfgh0jvztb" fill="#fff">
            <use xlink:href="#hs5o7j034a"/>
        </mask>
        <g mask="url(#gfgh0jvztb)" opacity=".402">
            <g>
                <path fill="#007AC2" d="M0 984.957L1919 984.957 1919 0.957 0 0.957z" transform="translate(0 -125)"/>
                <g>
                    <path fill="#FFF" d="M1594.2 731.982c4.277-1.264 8.554-2.527 12.834-3.794l-12.966-5.331.133 9.125zM1560.063 406.61c.67-1.65 1.342-3.3 2.012-4.952l-4.895 2.722 2.883 2.23zM931.445 280.724c1.397-.219 2.794-.438 4.194-.66l-3.856-2.216-.338 2.876zM1640.44 793.166c-.266-1.123-.532-2.247-.795-3.374l-1.568 3.279 2.364.095zM379.3 350.664c.675-1.85 1.352-3.705 2.032-5.563l-5.312 3.207 3.28 2.356z" transform="translate(0 -125) translate(7 15.957)"/>
                    <path fill="#00A7F9" d="M1353.81 106.866l-17.93 16.583 5.332 14.984c6.51 4.002 13.024 8.005 19.545 12.01l5.349-4.347-12.297-39.23zM1464.171 622.935l5.869 10.764 7.952-.748c2.75-2.677 5.499-5.354 8.256-8.035-.489-1.045-.974-2.09-1.462-3.138l-20.615 1.157z" transform="translate(0 -125) translate(7 15.957)"/>
                    <path fill="#00498A" d="M736.134 691.556l1.168-1.523c-1.623-2.206-3.245-4.405-4.864-6.604l-.075.867 3.77 7.26zM1162.56 758.904l6.524-2.49c-.82-9.92-1.64-19.823-2.463-29.712l-1.879 2.54-2.182 29.662zM569.903 398.55l-1.602-1.773c-3.064 1.489-6.117 2.978-9.171 4.463l1.042.284 9.731-2.975zM209.895 780.89l1.7 3.846c5.94-.803 11.874-1.605 17.793-2.408l-1.584-1.052-17.91-.386zM1707.462 753.642l-.164 1.813c2.422.942 4.837 1.882 7.248 2.817l-.38-.727-6.704-3.903zM584.617 510.444l36.99-7.008-7.457-10.712c-8.147 2.91-16.293 5.822-24.426 8.725-1.838 2.8-3.683 5.597-5.53 8.404.14.198.283.393.423.59M1903.765 761.719l-46.492 12.768c3.56 4.323 7.105 8.633 10.623 12.912 10.1-4.563 20.194-9.118 30.277-13.67 2.064-3.763 4.12-7.527 6.193-11.304-.201-.232-.4-.474-.6-.706M1451.953 782.795l-21.513 34.47c4.676.645 9.339 1.29 13.964 1.93 3.651-8.596 7.303-17.184 10.947-25.766-.874-3.507-1.745-7.014-2.62-10.538-.26-.028-.522-.062-.778-.096M1325.145 198.078l-8.13 18.887 7.133-.102c1.172-4.576 2.343-9.152 3.511-13.724-.707-1.687-1.41-3.374-2.117-5.072-.13.004-.263.01-.397.01" transform="translate(0 -125) translate(7 15.957)"/>
                    <path fill="#FFF" d="M902.624 193.97l1.25.122 3.89-7.687c-3.377-3.114-6.762-6.232-10.137-9.343l-3.248 6.509 8.245 10.398zM276.039 513.669c.406.081.813.167 1.22.252 1.553-2.4 3.097-4.78 4.645-7.171-3.006-3.429-6.012-6.857-9.015-10.279l-3.883 6.075 7.033 11.123zM1540.863 137.171l2.234 4.86c1.127-1.598 2.254-3.197 3.385-4.791-1.394-.51-2.794-1.018-4.198-1.534l-1.421 1.465zM169.96 532.214l3.45-1.636-3.45-2.37c-.349.994-.704 1.998-1.056 3.005l1.056 1zM1379.584 593.575l-.16-7.192c-2.248 1.366-4.492 2.736-6.74 4.105l4.362 4.135 2.538-1.048zM1356.078 261.73l-14.306 6.143c4.564 3.398 9.127 6.793 13.69 10.187 1.582-4.006 3.17-8.042 4.77-12.092l-4.154-4.238z" transform="translate(0 -125) translate(7 15.957)"/>
                    <path fill="#00498A" d="M852.33 464.871c-7.887-2.373-15.713-4.733-23.487-7.072-1.735 5.436-3.474 10.88-5.216 16.33l7.364 4.846 21.339-14.104zM566.878 265.702c1.834-1.854 3.655-3.699 5.462-5.525l-3.799-3.88-2.449 1.342.786 8.063zM357.49 553.807c5.923 9.947 11.802 19.82 17.643 29.624 6.96-3.989 13.932-7.987 20.914-11.986l-3.036-12.014-35.52-5.624zM1603.217 518.781c-2.743-2.455-5.465-4.894-8.167-7.311-1.728 1.871-3.463 3.746-5.202 5.62l2.06 3.354 11.31-1.663z" transform="translate(0 -125) translate(7 15.957)"/>
                    <path fill="#FFF" d="M1144.51 798.362l3.6-4.504c-2.913-.687-5.824-1.37-8.737-2.05l-3.044 3.228 8.181 3.326zM1568.472 773.014l-12.163 22.17c13.089.76 26.182 1.522 39.274 2.284l10.716-16.228-37.827-8.226zM474.385 275.293l-.522 10.753c5.15-2.144 10.308-4.296 15.463-6.444l1.076-8.209-16.017 3.9zM1808.344 350.074l-5.028-.478c.895 2.458 1.79 4.917 2.681 7.38l3.826.679-1.48-7.581z" transform="translate(0 -125) translate(7 15.957)"/>
                    <path fill="#00A7F9" d="M1621.217 461.106c.348-6.673.697-13.386 1.052-20.144l-22.387-11.911-19.86 20.875 34.148 17.464 7.047-6.284zM452.71 331.32c.297-1.506.598-3.026.902-4.552l-4.707-3.442-5.203 4.101 7.2 5.092 1.808-1.199zM1285.347 742.646c4.004-2 8.03-4.016 12.082-6.044l-.458-16.965-18.718-4.665 1.106 25.65 5.988 2.024zM323.593 220.408c-4.765-3.036-9.558-6.092-14.38-9.166l-18.087 11.495 7.08 23.296 27.074-17.83-1.687-7.795z" transform="translate(0 -125) translate(7 15.957)"/>
                    <path fill="#FFF" d="M1468.241 488.31c-2.531 1.557-5.059 3.115-7.59 4.668 1.41 1.298 2.818 2.589 4.236 3.893l3.354-8.56M1429.907 148.892c-.957-.509-1.913-1.014-2.866-1.52-.147.68-.294 1.36-.44 2.046 1.103-.174 2.206-.352 3.306-.526M989.146 332.222c.095-.922.194-1.84.29-2.762-.587.102-1.175.201-1.766.304.492.823.984 1.639 1.476 2.458" transform="translate(0 -125) translate(7 15.957)"/>
                    <path fill="#00A7F9" d="M1218.793 775.945c1.687.256 3.375.509 5.055.765 5.599-10.627 11.177-21.217 16.73-31.762-9.235 2.612-18.54 5.252-27.916 7.905 2.05 7.711 4.092 15.412 6.131 23.092M1504.023 757.263c.072.87.144 1.742.212 2.613 5.964 1.543 11.9 3.083 17.817 4.616-2.391-4.299-4.796-8.629-7.221-12.997l-10.808 5.768M1824.192 229.449l2.2 2.721c7.733-2.776 15.442-5.539 23.12-8.294-5.871-2.948-11.78-5.915-17.737-8.91-2.531 4.836-5.063 9.664-7.583 14.483M98.56 532.41l1.725-2.622c-4.474-5.843-8.935-11.676-13.38-17.481-.918 5.816-1.847 11.669-2.78 17.573 4.823.844 9.633 1.687 14.435 2.53M1077.802 290.352c-1.14-.035-2.281-.072-3.419-.11-2.886 7.5-5.762 14.971-8.621 22.412 5.93-2.459 11.904-4.941 17.93-7.44-1.972-4.963-3.932-9.918-5.89-14.862" transform="translate(0 -125) translate(7 15.957)"/>
                    <path fill="#FFF" d="M1692.648 300.76c1.64.392 3.282.781 4.922 1.174l-.376-3.719c-1.516.847-3.033 1.698-4.546 2.544M1887.544 409.948c-.038 1.847-.072 3.691-.11 5.535l3.884-1.27c-1.26-1.42-2.517-2.845-3.774-4.265M763.64 193.34c2.306.51 4.608 1.015 6.907 1.524l-.615-5.184c-2.098 1.219-4.198 2.441-6.292 3.66M1240.028 464.965l-1.592 5.402 14.18 10.832c1.417-5.71 2.855-11.484 4.303-17.33-.7-.458-1.397-.916-2.1-1.373l-14.79 2.469M517.142 210.533l-.816-5.47-17.11-3.791 3.33 17.221c.814.116 1.627.233 2.44.352 4.068-2.783 8.122-5.553 12.156-8.312M60.965 763.122l3.904 6.37 23.275-4.307-13.232-19.653c-1.073.28-2.142.564-3.218.844l-10.729 16.746M1817.687 864.119l11.101 12.556 49.75-18.587c-12.152-12.611-24.45-25.37-36.886-38.278l-6.784 3.125c-5.748 13.79-11.477 27.517-17.181 41.184M946.766 401.105c.351 5.621.7 11.232 1.048 16.832l42.43-25.048c-6.329-6.071-12.655-12.133-18.967-18.19-8.232 8.868-16.402 17.668-24.511 26.406M922.086 796.264l12.263 7.646 3.641-42.054-22.134 4.176c2.094 10.156 4.167 20.23 6.23 30.232M853.417 525.384l-1.933-3.005-5.253 9.022c1.796.464 3.596.932 5.39 1.4.6-2.493 1.202-4.962 1.796-7.417M1730.341 96.918l-6.766-3.736-.745 22.57c3.904-.957 7.805-1.91 11.702-2.863l-4.19-15.971" transform="translate(0 -125) translate(7 15.957)"/>
                    <path fill="#00498A" d="M515.388 830.19c.15-7.591.304-15.149.45-22.665-2.421.536-4.85 1.073-7.292 1.609l-4.488 23.047 11.33-1.991zM26.961 507.352l20.785-48.351-17.093-2.916L.851 501.73l26.11 5.621zM1469.075 127.734c11.764.423 23.476.847 35.124 1.263-.765-3.763-1.537-7.546-2.312-11.344l-35.617-7.526 2.805 17.607zM1619.822 317.959c.967 3.292 1.93 6.57 2.89 9.831.97-.56 1.944-1.12 2.924-1.683l-1.199-10.549-4.615 2.4zM894.85 350.774l10.152-4.323c-.72-.967-1.445-1.94-2.17-2.917l-11.128 2.61 3.146 4.63zM882.251 273.127c-.143 0-.287 0-.43.003l.454.069-.024-.072zM747.892 566.263c.126.164.25.327.372.491l-.31-.58-.062.089zM800.298 260.113l.27-.072-.298.03.028.042z" transform="translate(0 -125) translate(7 15.957)"/>
                    <path fill="#FFF" d="M1757.197 198.768l.881 3.005c2.63 1.677 5.27 3.353 7.901 5.027l.058-.24-8.84-7.792zM1238.707 222.04l-1.772 2.855c.546 3.302 1.093 6.608 1.636 9.907l.232-.123-.096-12.639zM213.794 146.087l-.482-1.72c-1.492-.974-2.988-1.947-4.478-2.917l-.034.136 4.994 4.501zM307.688 565.485l5.988-18.857-.677-.696c-.543-.407-1.09-.81-1.636-1.216l-7.842 16.364 4.167 4.405zM1515.344 324.966l-14.711-17.017-1.073.243-2.155.86 11.19 17.33 6.75-1.416zM740.652 134.94l-5.14 4.167.06.317.236.642 5.199-3.131-.355-1.995zM949.1 131.325l-3.982 26.367 1.048.778c.81.427 1.623.85 2.436 1.278l6.975-23.44-6.476-4.983zM1282.682 310.025l-3.84.533-.802 2.715c2.391 4.245 4.765 8.462 7.132 12.662l8.382 4.395.697-.044-11.569-20.26zM986.254 604.787c.106-.762.215-1.52.328-2.281l-1.418-.912c-2.825.67-5.632 1.332-8.426 1.99l-3.901 4.071-.09.403 13.507-3.271zM1059.736 681.162c.673.351 1.353.7 2.029 1.051l1.312-1.031c.29-2.858.584-5.696.877-8.524l-2.537-4.968-.349-.219-1.332 13.69zM1607.91 394.396l4.704 2.506 3.091-2.37c.769-6.662 1.53-13.277 2.292-19.871l-5.78-11.669-.812-.512-3.495 31.916z" transform="translate(0 -125) translate(7 15.957)"/>
                    <path fill="#00498A" d="M1002.162 747.569L1001.834 748.074 1002.152 747.927zM279.656 611.623L280.688 613.956 280.913 612.494zM971.577 451.045L971.966 451.287 971.853 451.045zM20.296 552.833L19.705 550.309 19.207 551.723z" transform="translate(0 -125) translate(7 15.957)"/>
                    <path fill="#FFF" d="M1143.456 313.652l1.943-3.828c-.898-.724-1.803-1.445-2.708-2.168l.478 6.163.287-.167zM1404.045 749.61l-5.656 3.21 1.609 5.01 4.55-8.193-.503-.027zM953.619 678.06l-7.037-6.29c-2.042 1.51-4.085 3.015-6.138 4.528l13.37 2.466-.195-.704zM1196.59 119.855l-4.788-1.892-2.289 3.477 7.31-1.26-.232-.325zM1783.646 529.69l-1.933-7.438-3.679 12.194c1.875-1.591 3.744-3.176 5.612-4.757M330.254 410.995l-5.458 5.908 12.82-3.65c-2.46-.759-4.913-1.507-7.362-2.258M1603.651 168.089l.871 3.34 1.643-5.478c-.84.714-1.677 1.428-2.514 2.138M1654.217 737.247l4.577-2.298-8.457-.696c1.294 1 2.589 1.997 3.88 2.994M218.82 583.234l1.786 5.747c.8.39 1.602.775 2.405 1.164l6.903-7.202c-.97-2.469-1.944-4.938-2.914-7.41l-8.18 7.7zM1678.541 812.275l2.45 5.669c.857.31 1.717.621 2.582.932l6.257-8.1c-1.26-2.414-2.524-4.829-3.784-7.247l-7.505 8.746zM39.366 627.77l17.814-9.07c.823-2.837 1.646-5.685 2.47-8.53l-27.464-18.543-22.622 13.708 29.802 22.436zM655.59 488.907l10.472.372c1.1-1.089 2.2-2.182 3.303-3.278l-7.87-15.483c-4.614.177-9.236.352-13.857.53l7.952 17.86zM1892.32 636.168l-8.27 8.1 12.048-1.871-1.97-5.423-1.808-.806M1176.066 258.839c-5.455-6.55-10.907-13.1-16.362-19.646l1.968 26.848 12.29-3.364 2.104-3.838M1755.946 319.056c-1.076 2.295-2.152 4.593-3.224 6.888l6.982-3.92-2.46-2.886-1.298-.082M1209.763 641.717l-4.563 8.763 13.458 1.72c-.506-1.529-1.015-3.055-1.53-4.592l-7.365-5.89zM1595.865 846.22l5.141-1.38-4.222-5.965c-.42.758-.847 1.516-1.267 2.281l.348 5.064zM1749.015 710.615l-6.48 14.827 22.185 1.312c-1.004-2.442-2.005-4.887-3.012-7.339l-12.693-8.8zM113.476 357.644l-10.606-2.797 1.428 14.991c1.534-.925 3.064-1.85 4.604-2.78l4.574-9.414zM703.148 733.569l9.524-18.034-27.767-3.705c1.035 3.162 2.07 6.324 3.105 9.5l15.138 12.239z" transform="translate(0 -125) translate(7 15.957)"/>
                    <path fill="#00498A" d="M1399.525 197.876l-11.16-13.065-19.787 11.129 30.947 1.936M542.233 744.597l-.666-17.825-23.282-3.685c7.942 7.137 15.918 14.301 23.948 21.51" transform="translate(0 -125) translate(7 15.957)"/>
                    <path fill="#00A7F9" d="M1537.781 645.586L1543.693 666.594 1546.037 667.69 1557.876 656.257 1539.338 644.192zM578.573 115.356L580.595 123.508 581.483 123.958 586.176 119.7 579.188 114.841zM1681.477 687.405L1689.989 700.405 1691.809 700.648 1697.404 690.352 1682.238 686.124zM1537.998 476.657L1537.126 486.246 1537.919 487.062 1544.6 484.217 1538.858 476.329z" transform="translate(0 -125) translate(7 15.957)"/>
                    <path fill="#FFF" d="M1441.402 580.139l2.155 1.775c4.66-11.603 9.36-23.306 14.097-35.091l-17.355 7.888c.369 8.538.737 17.013 1.103 25.428M388.049 731.475l1.875-1.346c-8.287-6.195-16.645-12.447-25.065-18.744l2.613 15.558c6.907 1.523 13.769 3.036 20.577 4.532M1683.815 477.152l-3.2-4.35c-14.265 19.556-28.652 39.284-43.145 59.155l36.323-6.553c3.368-16.197 6.705-32.288 10.022-48.252M1007.346 546.437l-1.274.082c2.087 5.33 4.19 10.705 6.308 16.121l3.31-8.072c-2.8-2.729-5.581-5.44-8.344-8.131M1789.097 835.799c2.2-1.438 4.406-2.886 6.613-4.33l-1.186-4.221c-1.81 2.858-3.624 5.706-5.427 8.55M1883.43 343.084c-1.069 2.295-2.151 4.607-3.224 6.905l3.115 2.865c.038-3.265.072-6.519.11-9.77M1894.515 117.102c-1.277-.283-2.565-.573-3.846-.86l-1.1 1.888c1.65-.341 3.303-.686 4.946-1.028" transform="translate(0 -125) translate(7 15.957)"/>
                    <path fill="#00498A" d="M1838.972 506.782l-8.146-3.234-2.2 1.008.4 8.192 10.032-5.228-.086-.738zM1514.684 387.33l-23.268 9.612-2.528 6.478c5.742 5.372 11.484 10.74 17.216 16.101l10.227-30.846-1.647-1.346zM336.892 650.324l38.957-10.77 5.29-9.828-24.282-29.013-22.325 47.142 2.36 2.47zM1051.91 473.795l-30.116 22.75-1.213 10.347c10.363 5.618 20.72 11.235 31.066 16.843l3.163-48.608-2.9-1.332z" transform="translate(0 -125) translate(7 15.957)"/>
                    <path fill="#FFF" d="M1550.156 262.147c.86-.587 1.718-1.178 2.575-1.766l-6.848-5.504-3.41 2.687 7.683 4.583zM749.81 315.488l3.809-2.25-9.155-8.435-5.079 3.476 10.425 7.209zM727.901 461.96l-7.235-8.104-15.982 26.07 10.794 10.582L727.9 461.96zM139.605 400.212c-1.015.058-2.03.12-3.044.177l2.948 8.06 4.212-.53-4.116-7.707zM1108.628 418.485l2.695 7.895 13.062-1.349c-.67-1.72-1.343-3.445-2.02-5.177-.72-.703-1.44-1.41-2.168-2.117l-11.57.748zM1255.172 530.977l-4.19 5.856 7.514 8.49 2.616-4.016c.134-.864.267-1.721.4-2.589l-6.34-7.741zM405.511 189.789l17.69 21.07 38.564-19.708c-4.112-4.49-8.232-8.991-12.368-13.512-3.064-1.308-6.131-2.62-9.202-3.934l-34.684 16.084zM900.966 417.291l-4.177 1.031c-1.319 2.435-2.637 4.86-3.952 7.284l-2.566 15.005 4.438 2.121 19.722-3.504-13.465-21.937M662.431 165.798l7.033-3.73c1.278-4.958 2.548-9.903 3.819-14.844l-2.142-28.087-8.918-1.807c-11.272 5.047-22.551 10.098-33.827 15.149 11.269 11.033 22.616 22.138 34.035 33.319M1348.519 653.686l-.898-1.24c-.98-.113-1.958-.225-2.931-.335l-5.298 1.158-.106 1.745c1.26 2.015 2.52 4.026 3.785 6.041 1.807-2.442 3.62-4.894 5.448-7.37M1493.035 687.991c-.427.448-.854.895-1.28 1.339l1.78-.335-.5-1.004zM223.525 491.375l2.61 1.066-1.47-2.333-1.14 1.267zM1138.236 188.038l-4.786.84 4.287 2.056.499-2.896zM1260.956 398.706l1.903.144-1.431-1.2-.472 1.056z" transform="translate(0 -125) translate(7 15.957)"/>
                    <path fill="#003A7A" d="M923.746 640.757l13.164-17.785-2.162-42.335c-5.513 2.95-10.992 5.88-16.437 8.8-.26 16.129-.52 32.374-.775 48.663l4.14 3.408c.686-.253 1.38-.502 2.07-.751M1421.955 419.244l9.403 17.675 35.422 14.732c-.26-5.652-.523-11.27-.782-16.85-13.08-6.498-26.247-13.037-39.45-19.594-1.468.687-2.93 1.366-4.399 2.053-.065.659-.126 1.325-.194 1.984M1445.445 369.346l6.715-6.277 2.31-17.46c-2.477.789-4.94 1.578-7.382 2.356-1.319 6.574-2.65 13.192-3.983 19.827l1.435 1.704c.3-.051.604-.099.905-.15" transform="translate(0 -125) translate(7 15.957)"/>
                    <path fill="#FFF" d="M869.028 830.62l-.816 7.83c2.306-.615 4.598-1.222 6.914-1.84-2.04-2.002-4.065-3.992-6.098-5.99M1717.622 168.45c-1.328.11-2.654.216-3.986.325l1.565 3.278c.81-1.202 1.615-2.4 2.421-3.602M1561.09 335.184c-.358 2.175-.72 4.354-1.075 6.529 1.964-.4 3.917-.792 5.888-1.195-1.608-1.78-3.207-3.555-4.812-5.334M1842.718 413.049c-.304-.727-.608-1.455-.915-2.182-.516.495-1.032.983-1.558 1.482.83.232 1.65.468 2.473.7M1379.044 462.298c1.277-2.236 2.552-4.477 3.826-6.717-2.313-.358-4.612-.714-6.938-1.076 1.042 2.606 2.074 5.195 3.112 7.793M849.298 393.505c-.202-.645-.407-1.294-.608-1.94-2.443-.57-4.861-1.137-7.293-1.71-.57.847-1.141 1.69-1.711 2.534l2.695 3.68 6.917-2.564zM454.356 760.048l.13-1.182c-1.172-.878-2.333-1.745-3.498-2.623-.506.318-1.008.636-1.51.953l.577 2.602 4.3.25zM334.143 788.964c.25-.703.499-1.41.752-2.114-1.78-2.127-3.539-4.234-5.312-6.351-1.065.365-2.128.73-3.193 1.103l-.065 5.04 7.818 2.322zM767.995 508.756l1.137 4.259c.635.365 1.267.724 1.896 1.082l8.485-6.184c-1.91-1.066-3.833-2.138-5.766-3.21l-5.752 4.053zM373.458 420.523l-11.323 11.583c.04 2.677.082 5.351.126 8.015l35.46 15.186c-.223-8.025-.445-16.105-.667-24.226l-23.596-10.558zM503.039 451.113l.208 10.883c1.302 1.243 2.603 2.483 3.898 3.716l23.992-9.811-11.914-11.105-16.184 6.317zM207.06 416.234l-6.419 2.957c-.4 1.097-.799 2.196-1.195 3.289l12.085 11.703 3.498-9.975-7.97-7.974zM1687.724 654.93l15.074-4.262c1.254-2.268 2.504-4.532 3.754-6.785l-22.428-29.799c-3.675 6.837-7.381 13.721-11.104 20.636l14.704 20.21z" transform="translate(0 -125) translate(7 15.957)"/>
                    <path fill="#00A7F9" d="M243.334 847.274l-12.208-3.585 5.834 10.808 6.374-7.223zM1736.616 647.393c1.588 1.004 3.17 2.001 4.74 2.995l-1.167-5.286-3.573 2.291zM1112.364 513.335c-.168 2.155-.335 4.3-.499 6.43l4.751-4.026-4.252-2.404z" transform="translate(0 -125) translate(7 15.957)"/>
                    <path fill="#FFF" d="M375.151 150.513l2.292 1.236 12.799-.673c-5.189-9.47-10.35-18.898-15.48-28.255l-1.278.09-8.239 9.773 9.906 17.829zM545.082 581.95l-.563-.028-2.443 1.322 5.657 4.088.242-.137c.236-.891.468-1.783.704-2.677l-3.597-2.568zM1783.61 458.258l-1.62.587-5.284 6.601c6.944 1.605 13.858 3.2 20.723 4.785l.52-.67-1.2-8.352-13.14-2.95z" transform="translate(0 -125) translate(7 15.957)"/>
                    <path fill="#00A7F9" d="M1660.461 171.575l2.955-1.038-1.687-1.717c-.424.922-.844 1.84-1.268 2.755M622.284 689.919l-1.558-2.329-1.113 1.844c.891.16 1.783.325 2.671.485" transform="translate(0 -125) translate(7 15.957)"/>
                    <path fill="#FFF" d="M265.621 796.884l4.687 11.14c3.959-4.378 7.962-8.797 12.003-13.267l-16.69 2.127zM1562.735 703.952l-17.99-6.017c1.058 9.203 2.13 18.502 3.214 27.893l14.776-21.876zM143.738 850.666l15.88 15.268c3.473-10.183 6.981-20.472 10.524-30.867l-26.404 15.599z" transform="translate(0 -125) translate(7 15.957)"/>
                    <path fill="#00A7F9" d="M100.67 111.665c-.563.266-1.13.53-1.694.792-.734 3.1-1.469 6.178-2.196 9.23l5.301-2.031-.69-7.295-.72-.696zM764.102 757.197l2.975-.349c2.698-4.333 5.38-8.636 8.037-12.905l-9.09.386-2.663 11.444c.245.474.491.945.74 1.424M700.947 343.65c-.714-.225-1.428-.446-2.142-.672l-9.448 6.365 6.333 2.52 5.329-7.01-.072-1.202zM434.168 810.428c-.007 1.796-.017 3.595-.027 5.392 7.156 5.767 14.26 11.49 21.31 17.173l1.295-16.323-19.873-7.257-2.705 1.015" transform="translate(0 -125) translate(7 15.957)"/>
                    <path fill="#FFF" d="M514.92 528.929l33.325-11.7c1.612-2.298 3.224-4.593 4.833-6.884l-2.818-4.002c-12.525-3.173-24.925-6.315-37.19-9.426l-9.89 12.079 11.74 19.933zM622.096 610.61l-24.502 19.154c-.697 2.37-1.397 4.74-2.094 7.106l3.481 2.544c11.344-.884 22.575-1.755 33.69-2.62l4.84-12.863-15.415-13.322zM1106.363 455.894l-32.624-11.966c-2.661.734-5.319 1.468-7.983 2.206l-.359 4.798c7.522 10.241 14.968 20.387 22.333 30.423l15.067-2.985 3.566-22.476zM1902.314 198.326l-13.605-16.583c-1.65-.44-3.293-.884-4.94-1.328l-1.697 2.442c.796 7.806 1.578 15.534 2.354 23.18l8.949 3.128 8.939-10.839zM168.557 644.085c10.917 8.366 21.888 16.77 32.897 25.212-2.223-12.755-4.454-25.54-6.688-38.36l-26.209 13.148zM559.633 347.438c6.38-.526 12.792-1.056 19.227-1.581-4.751-3.706-9.52-7.418-14.298-11.14l-4.93 12.72zM691.033 207.309c6.886-7.291 13.8-14.62 20.744-21.975-9.417.662-18.859 1.328-28.324 1.99l7.58 19.985zM696.092 778.563c2.234 1.912 4.478 3.831 6.729 5.76-.325-2.745-.656-5.5-.984-8.263l-5.745 2.503zM1567.151 202.243c-10.606-6.536-21.266-13.1-31.96-19.69 3.176 11.282 6.363 22.6 9.553 33.944l22.407-14.254zM1021.045 412.763c2.538 4.073 5.083 8.154 7.634 12.242 5.083-3.282 10.203-6.59 15.354-9.924l.71-5.863c-7.958 1.192-15.859 2.373-23.698 3.545M371.185 271.11c-1.424 10.022-2.849 20.065-4.28 30.126 12.666 1.587 25.42 3.182 38.27 4.79l9.096-8.506-43.086-26.41M1192.114 348.866l-5.896-4.289c-1.755 2.5-3.528 5.017-5.311 7.554l.775 2.879c3.505-2.063 6.982-4.112 10.432-6.144M1320.025 559.45c5.435-5.495 10.88-11.004 16.328-16.522l-21.274-20.336-9.444 1.08c4.833 12.013 9.629 23.941 14.39 35.777M1239.945 348.865l-8.126.816 3.566 5.146 4.56-5.962M1886.23 706.79l1.564 10.702 6.602-5.023c-2.726-1.895-5.448-3.787-8.167-5.679M417.45 387.387l4.481-4.705-4.823-1.257c.113 1.988.229 3.978.342 5.962M1337.047 776.398l5.606 1.585-1.018-4.347c-1.53.922-3.06 1.84-4.588 2.762M900.946 492.219l1.605-1.763-1.78-.423.175 2.186" transform="translate(0 -125) translate(7 15.957)"/>
                    <path fill="#00A7F9" d="M526.664 303.3l-5.776 2.594-1.332 2.012 6.268.597 1.503-2.189c-.222-1.007-.444-2.01-.663-3.015M959.771 508.5l-5.66 5.152-.771 2.81 7.425-1.666.906-3.087c-.636-1.068-1.268-2.14-1.9-3.21M835.183 574.66l-27.43.464-8.747 5.734 23.934 13.096 9.735-6.154c.837-4.388 1.67-8.77 2.508-13.14M150.187 593.755l3.081.355-1.486-5.792c-.95.806-1.895 1.609-2.841 2.408l1.246 3.029zM775.99 436.452l-5.093-3.446-2.691 11.55c2.404-.547 4.806-1.09 7.207-1.633l.577-6.471z" transform="translate(0 -125) translate(7 15.957)"/>
                    <path fill="#FFF" d="M486.369 550.188l-2.456 1.732 1.592 8.98 3.62-8.85c-.918-.622-1.837-1.24-2.756-1.862M194.933 726.716l4.16 3.975 16.293-6.314-17.977-3.528c-.827 1.957-1.653 3.914-2.476 5.867M580.614 181.065l-2.561-5.655-18.862-.24 16.58 10.775 4.843-4.88M154.834 149.32l2.903-.922 1.206-9.165-6.206 7.447c.7.882 1.397 1.763 2.097 2.64M324.793 308.698l-3.368 2.312 9.189 2.592c-1.947-1.64-3.887-3.272-5.82-4.904M1036.993 614.818l-3.935 3.114c3.805.8 7.631 1.605 11.474 2.415-2.521-1.851-5.035-3.692-7.539-5.529M1410.016 298.57l4.096 16.839 16.347.878 2.313-1.91c-1.534-5.306-3.081-10.654-4.635-16.039l-18.12.232zM1763.208 784.505l20.737.287 5.91-18.672c-.51-1.083-1.018-2.169-1.527-3.251-6.606.19-13.264.382-19.972.58l-5.148 21.056zM810.04 165.856l12.529 8.326c3.658-3.026 7.306-6.048 10.947-9.06l.349-2.582c-4.106-2.479-8.24-4.979-12.406-7.499l-11.42 10.815zM601.806 567.487l10.668-9.634c-1.944-4.098-3.88-8.189-5.814-12.266-.769-.31-1.537-.622-2.306-.936-3.265 3.217-6.555 6.454-9.871 9.716l7.323 13.12zM1096.873 823.29l-4.762-9.504c-3.303.57-6.603 1.144-9.892 1.715-.372.485-.752.973-1.124 1.458 1.647 2.964 3.307 5.949 4.977 8.957l10.8-2.626z" transform="translate(0 -125) translate(7 15.957)"/>
                    <path fill="#00A7F9" d="M1819.545 615.048l4.632-4.436-.611-8.844-6.412 3.288.331 10.716c.69-.239 1.377-.485 2.06-.724M80.778 259.049c-3.836-1.366-7.655-2.729-11.454-4.08l-14.465 8.557 11.019 8.059 17.871-9.668c-.99-.956-1.98-1.915-2.971-2.868M1119.906 121.176l5.882 9.336 15.121 2.005-3.337-11.932-18.175-3.121c.167 1.236.338 2.475.509 3.712" transform="translate(0 -125) translate(7 15.957)"/>
                    <path fill="#003A7A" d="M1669.795 351.654l-1.626 1.69c-.017 4.372-.038 8.716-.055 13.022l8.106 2.605-2.193-16.524c-1.407-.263-2.818-.526-4.232-.793M715.25 434.144l10.374-5.006c3.962-15.337 7.9-30.567 11.802-45.66l-41.943-13.746-2.633 59.221c7.456 1.728 14.927 3.46 22.4 5.19M719.222 819.438l-1.599 3.548 7.18 20.387 14.128-.45-12.649-24.605c-2.35.372-4.704.748-7.06 1.12M29.468 108.367l2.172 1.38 14.025-2.787 1.032-9.289-17.3 5.97.07 4.726M248.187 223.136l5.677-2.292c4.707-10.401 9.376-20.728 14.005-30.966l-16.54-14.84-12.382 41.698 9.24 6.4" transform="translate(0 -125) translate(7 15.957)"/>
                    <path fill="#00498A" d="M1020.575 262.124l-17.684 8.38-.003 11.303c5.868-2.332 11.808-4.695 17.81-7.079l.66-6.39c-.26-2.069-.52-4.141-.783-6.214M343.195 546.337l38.448-53.594-18.466-33.343c-13.482 16.46-27.145 33.135-40.941 49.967l8.495 19.926 12.464 17.044M1401.113 823.637l-18.5 5.73-1.591 11.078c6.073-1.465 12.228-2.944 18.445-4.44l1.544-6.17c.03-2.06.068-4.129.102-6.198M65.11 468.148l33.97-25.134-4.714-23.955c-11.453 7.39-23.06 14.875-34.776 22.432l1.267 13.817c1.414 4.272 2.832 8.554 4.253 12.84M466.304 409.943l-5.257 14.377 6.207 6.307c1.988-4.521 4.007-9.1 6.039-13.721l-3.14-3.927c-1.28-1.011-2.564-2.022-3.849-3.036" transform="translate(0 -125) translate(7 15.957)"/>
                    <path fill="#FFF" d="M106.666 648.213c-1.076 4.969-2.155 9.93-3.231 14.89l33.515 17.726 15.525-10.917-8.17-24.09-19.706-12.088-17.933 14.48zM44.008 746.098c-.222-3.93-.447-7.861-.67-11.785l-28.699-6.3c-3.118 3.8-6.227 7.591-9.332 11.368l11.091 16.3c5.715 1.638 11.45 3.288 17.22 4.944l10.39-14.527zM1000.03 797.832l-6.572.686-2.756 16.207c2.206 1.643 4.41 3.278 6.603 4.914l8.82-6.635c.764-3.234 1.533-6.485 2.308-9.753l-8.403-5.42zM301.208 154.87l6.746-14.077-29.201-25.601c-6.04 2.407-12.058 4.808-18.06 7.205l2.436 25.943c5.564 5.546 11.153 11.116 16.775 16.716l21.304-10.187zM746.644 255.437c-1.28-5.549-2.565-11.098-3.846-16.637l-42.448-1.95c-3.514 6.181-7.019 12.341-10.517 18.488l19.805 20.514c8.543.939 17.123 1.885 25.755 2.837l11.251-23.252zM1895.196 258.675c-2.152-2.554-4.315-5.115-6.48-7.687-2.378 4.003-4.724 7.964-7.043 11.877l6.35 8.777 6.035-2.654c.372-3.4.755-6.836 1.138-10.313M1831.687 275.897c-6.36 7.646-12.751 15.322-19.16 23.026 12.99 4.866 25.834 9.681 38.534 14.442l22.428-23.225-10.948-16.31c-10.172.68-20.457 1.37-30.854 2.067M296.228 730.26c-3.935-1.044-7.887-2.089-11.853-3.144l1.274 16.79 12.492 4.327 4.17-6.874-6.083-11.098M1220.474 293.698c2.784.56 5.582 1.124 8.386 1.687-.536-3.924-1.07-7.803-1.599-11.638l-8.877-2.482-2.617 4.961c1.551 2.466 3.122 4.955 4.707 7.472M123.381 462.147c-1.103-4.392-2.206-8.804-3.32-13.23-5.28 3.47-10.5 6.895-15.664 10.283l2.514 14.482 8.939.362 7.531-11.897M12.564 168.824c.666 2.128 1.332 4.242 1.991 6.349l1.988.16-1.09-8.243c-.97.58-1.93 1.16-2.89 1.734M845.652 756.416c3.945 9.688 7.87 19.339 11.78 28.948l9.364-.02-8.3-38.162c-4.301 3.09-8.581 6.168-12.844 9.234M1202.885 441.632l5.66-3.38-1.066-3.333c-2.135 1.775-4.277 3.561-6.425 5.35.611.455 1.223.913 1.83 1.363M796.77 654.18l-14.223-16.809-10.398 5.334c7.013 6.058 14.056 12.14 21.127 18.253 1.165-2.264 2.333-4.528 3.494-6.779M437.079 510.287l-5.862 25.513 12.488 6.092 2.316-33.11c-2.985.501-5.974 1.007-8.942 1.505M1199.826 518.9l-5.038 5.94 2.47 3.319c1.704-2.8 3.415-5.614 5.137-8.435-.858-.277-1.715-.55-2.569-.823M1066.955 188.615l-1.179 11.047 1.609 3.678 3.142-12.54-2.442-1.652c-.376-.178-.755-.355-1.13-.533" transform="translate(0 -125) translate(7 15.957)"/>
                    <path fill="#00A7F9" d="M1133.959 367.43l-10.534-6.84-4.53-.266 11.03 9.589 2.917-1.615c.372-.287.745-.578 1.117-.868M1485.914 182.746l-.23.898.144-.014c.027-.294.055-.59.086-.884M1452.653 730.25l1.325-.228-.105-.188-1.22.417M466.343 139.589L468.905 139.712 468.785 139.323zM1386.606 384.346l-.502.81.147.03c.12-.28.236-.56.355-.84" transform="translate(0 -125) translate(7 15.957)"/>
                    <path fill="#00498A" d="M423.744 227.03l-.287.337 24.221 43.106c1.715-2.182 3.44-4.374 5.162-6.566-9.65-12.233-19.35-24.526-29.096-36.878M1118.765 839.97l-.256.288 20.3 37.919c1.53-1.865 3.074-3.746 4.608-5.621-8.178-10.805-16.396-21.671-24.652-32.585M1863.623 496.634l.3.215 34.332-23.266c-1.947-1.28-3.9-2.564-5.854-3.852-9.544 8.924-19.142 17.891-28.778 26.903M1299.75 227.25l-.525-.023-22.773 54.515c3.313.01 6.65.017 9.98.028 4.42-18.082 8.858-36.26 13.319-54.52" transform="translate(0 -125) translate(7 15.957)"/>
                    <path fill="#FFF" d="M1614.575 567.126c.178-.071.356-.147.533-.222l-.546-.235c.003.15.01.304.013.457M127.806 719.039c-.126.082-.253.167-.376.25l.451.102-.075-.352zM379.716 806.756l1.725-.922c-.677-.52-1.353-1.045-2.03-1.568l.305 2.49zM195.743 225.969l2.47 3.954c1.134-1.687 2.275-3.38 3.415-5.078l-5.885 1.124zM1776.608 267.08l-.513-1.937c-.683.55-1.366 1.103-2.046 1.653l2.559.283zM1306.97 464.386l-5.015 1.489 4.474 5.211.54-6.7z" transform="translate(0 -125) translate(7 15.957)"/>
                    <path fill="#00A7F9" d="M1102.874 714.594l-1.155 1.833 2.166-.44c-.338-.468-.67-.929-1.011-1.393M21.093 674.212l7.74 6.816-.433-10.508c-2.436 1.23-4.871 2.46-7.307 3.692" transform="translate(0 -125) translate(7 15.957)"/>
                    <path fill="#00498A" d="M642.412 739.038l-1.196-.164c.09.297.178.594.27.892.308-.24.618-.489.926-.728M826.343 697.152l3.153 3.477c.478-1.113.956-2.22 1.434-3.33-1.527-.048-3.064-.095-4.587-.147M1269.723 811.611l5.666-3.053c-1.318-1-2.637-2-3.955-3.005l-1.711 6.058M1468.331 246.722l5.114 1.065c-.294-1.311-.591-2.623-.889-3.934-1.407.953-2.818 1.916-4.225 2.869M1789.754 109.179l-1.179-.147c.096.29.185.58.274.87.3-.238.604-.484.905-.723" transform="translate(0 -125) translate(7 15.957)"/>
                    <path fill="#00A7F9" d="M684.21 534.175L684.77 533.304 683.684 533.457zM442.472 611.093L445.058 611.373 443.49 609.102zM1219.473 590.834L1220.655 591.537 1220.399 590.103zM1063.886 125.409L1063.192 124.853 1063.227 125.795zM1318.75 403.302l4.97-.902c-.587-1.018-1.174-2.032-1.762-3.046-1.069 1.315-2.141 2.633-3.207 3.948M888.931 121.406l-2.418-.512.232 1.707c.731-.4 1.459-.799 2.186-1.195M269.85 414.22l3.48 2.854c.352-.983.7-1.966 1.052-2.95-1.513.03-3.026.065-4.533.096M1203.152 182.589l1.967-.065c-.17-.424-.334-.847-.505-1.274-.489.447-.974.895-1.462 1.339M1806.366 173.051l.215-1.287c-.294.051-.594.106-.892.157.222.376.451.755.677 1.13" transform="translate(0 -125) translate(7 15.957)"/>
                    <path fill="#00498A" d="M1575.45 609.526c-.747.194-1.492.385-2.237.577l1.773 3.596.465-4.173zM1874.21 556.301c-3.842.216-7.685.434-11.538.65l5.192 19.351 6.347-20zM164.546 297.033l6.705-.058-2.466-11.365-4.24 11.423zM168.345 799.212c1.845-1.663 3.69-3.333 5.537-4.999l-10.449-7.632 4.912 12.631zM1677 112.47l-8.86-7.356-9.36 17.645L1677 112.47z" transform="translate(0 -125) translate(7 15.957)"/>
                    <path fill="#FFF" d="M669.53 642.728l11.92 17.3c-1.837-6.513-3.672-13.004-5.5-19.48l-6.42 2.18zM1153.383 662.223l-19.033 21.606c8.045-4.61 16.072-9.213 24.068-13.796l-5.035-7.81zM422.79 478.816l7.641-6.66c-.95-2.349-1.899-4.702-2.849-7.054l-4.792 13.714zM644.3 419.074l2.67-5.693-3.38-3.292.71 8.985zM1711.394 446.746l-4.112.43c-.236 1.008-.475 2.015-.707 3.023l4.82-3.453zM954.21 229.487l.02-6.646c-1.572-.546-3.143-1.1-4.714-1.645l4.693 8.29z" transform="translate(0 -125) translate(7 15.957)"/>
                    <path fill="#00498A" d="M1061.684 366.063c2.753.18 5.52.362 8.304.546l-6.063-5.221c-.751 1.57-1.496 3.128-2.24 4.675M579.465 446.953c6.62 3.958 13.287 7.94 19.979 11.939-2.811-6.899-5.623-13.807-8.437-20.722-3.877 2.954-7.72 5.877-11.542 8.783M930.03 571.338c-2.637-11.59-5.29-23.262-7.958-34.972-4.7 10.477-9.41 20.964-14.121 31.462 7.419 1.174 14.77 2.346 22.08 3.51M96.025 296.61c2.497 7.393 5.018 14.837 7.542 22.309l7.115-21.497-14.657-.813M878.685 657.42l-2.151-.747-.988 3.408c1.042-.884 2.094-1.776 3.14-2.66M1379.214 519.671c.362-.191.731-.375 1.09-.567l-.967-1.652-.123 2.22M1656.012 420.328l.024 1.243 1.933-.14c-.652-.37-1.308-.738-1.957-1.103M76.106 661.256c-.147.44-.294.884-.44 1.328l2.1.577c-.553-.635-1.107-1.273-1.66-1.905" transform="translate(0 -125) translate(7 15.957)"/>
                    <path fill="#FFF" d="M566.166 824.557l-3.399-.771c.427 1.417.857 2.837 1.288 4.261l2.193-3.374-.082-.116zM61.055 814.306l-8.341-3.897c.31 3.9.625 7.81.94 11.727l7.548-7.485-.147-.345zM61.922 180.448l.482 5.006c1.749-1.23 3.505-2.462 5.26-3.702l-5.622-1.468-.12.164zM1083.797 577.377l-2.654-3.008c-.554 1.615-1.114 3.23-1.667 4.853l4.32-1.68v-.165z" transform="translate(0 -125) translate(7 15.957)"/>
                    <path fill="#003A7A" d="M1279.72 149.59c-2.596 2.07-5.172 4.126-7.727 6.168l3.208 8.113 4.789.168c1.243-1.011 2.49-2.025 3.737-3.043l-4.007-11.406zM1415.927 223.21c-8.092 4.266-16.133 8.5-24.115 12.7l4.474 23.632 12.892 2.943 11.695-6.314-4.946-32.96zM1708.832 400.692c10.016 1.38 19.955 2.749 29.824 4.111l11.196-24.092-9.676-10.934-14.569-1.858-16.774 32.773zM1360.004 344.508c.024-8.045.051-16.033.075-23.966l-20.208-6.27-7.6 8.8c.03 3.887.055 7.78.082 11.686l27.65 9.75zM1744.972 575.95l-.297 24.683 20.75 6.639 7.908-8.992c.01-4.005.017-8.014.024-12.034l-28.385-10.296z" transform="translate(0 -125) translate(7 15.957)"/>
                    <path fill="#FFF" d="M365.658 220.673c.04.755.082 1.51.126 2.264.775-.509 1.55-1.014 2.33-1.523l-.22-3.592-2.236 2.851zM1000.137 673.228l.67 2.62c.792-.776 1.58-1.551 2.377-2.323l-1.093-4.16-1.954 3.863zM15.483 246.126c-2.774 1.021-5.551 2.046-8.318 3.06l8.365 6.973 13.196-4.945-13.243-5.088zM482.024 695.485c2.654.97 5.315 1.94 7.966 2.91l-1.794-10.259-12.69-4.549 6.518 11.898zM635.866 289.798l3.163-2.011c-1.456-1.127-2.907-2.25-4.359-3.37l1.025 5.251.17.13zM1517.082 807.476l-5.608 5.44c3.446 1.684 6.882 3.36 10.319 5.037l-4.31-10.282-.4-.195z" transform="translate(0 -125) translate(7 15.957)"/>
                    <path fill="#00498A" d="M560.262 649.12l1.574 2.831.55-.717c-.089-.481-.177-.963-.263-1.448-.618-.218-1.24-.444-1.861-.666M1165.535 406.748l12.099-1.953-1.852-2.88c-1.824-.307-3.651-.617-5.479-.928-1.584 1.916-3.18 3.842-4.768 5.76M194.84 346.544l-2.988 17.474 4.806-1.185c1.277-2.353 2.558-4.713 3.84-7.07-1.883-3.066-3.772-6.146-5.657-9.22M1646.782 213.803l-14.903 10.228 4.283 2.67c2.627-.737 5.264-1.475 7.897-2.216l2.723-10.682" transform="translate(0 -125) translate(7 15.957)"/>
                    <path fill="#FFF" d="M163.69 465.483L162.208 473.153 167.875 471.384zM434.799 696.309L429.354 659.814 406.895 676.591zM856.156 217.703L844.863 218.608 849.533 225.834zM1640.377 253.093L1608.812 273.937 1634.119 287.546zM1019.471 148.287L1017.835 122.863 1001.412 133.104zM247.128 672.424L249.287 682.484 255.947 677.246zM1845.066 661.933L1844.387 672.666 1852.571 669.282zM803.435 804.711L804.002 796.847 797.98 799.278zM1613.965 646.94L1636.157 671.759 1646.48 646.369zM508.156 370.27c-3.552-2.787-7.095-5.567-10.626-8.34l-2.894 1.36.356 9.886 1.537.686 11.627-3.592zM248.042 289.463c.089-3.227.181-6.448.27-9.658l-2.015-1.086-5.534 4.416.263 1.178 7.016 5.15zM1155.585 565.939l-6.507 13.216 2.1 2.786 10.473-2.605.39-1.8-6.456-11.597z" transform="translate(0 -125) translate(7 15.957)"/>
                    <path fill="#003A7A" d="M1221.021 719.833c-.714-10.245-1.428-20.425-2.135-30.536l-3.067-.967-4.902 5.457 1.82 24.034 8.284 2.012zM1360.524 702.678c-2.79 7.462-5.564 14.869-8.32 22.231.62.557 1.24 1.113 1.857 1.67l5.213-2.274 6.445-17.546-5.195-4.08z" transform="translate(0 -125) translate(7 15.957)"/>
                    <path fill="#FFF" d="M130.668 211.654l-4.546 5.843 5.923 2.182c-.458-2.677-.919-5.355-1.377-8.025M642.051 221.55l-2.544 6.775 6.165.318c-1.206-2.367-2.415-4.733-3.62-7.093M1006.415 201.84l-.164-2.294c-.608.24-1.213.482-1.82.727.658.52 1.325 1.045 1.984 1.568M1066.775 758.92c-.093 2.456-.188 4.904-.277 7.346l4.71 2.923 7.218-6.106-.267-1.27-8.85-4.873-2.534 1.98zM1779.894 416.627c1.871-1.103 3.74-2.202 5.605-3.298l-.072-4.9-7.996-2.466-.817.806.591 8.916 2.689.942zM1216.785 829.553c.089-6.656.181-13.301.273-19.923l-12.952-7.608-19.17 17.013.81 3.422 24.293 12.631 6.746-5.535zM1827.057 804.201c4.946-.526 9.885-1.048 14.81-1.57l4.493-10.286-14.33-12.707-2.47.901-7.213 19.151 4.71 4.511zM1741.263 820.759l-7.949 1.42c2.183 1.697 4.376 3.405 6.589 5.13l1.677-5.874-.317-.676zM523.979 656.977l-19.057-40.862c-6.042 14.192-12.13 28.504-18.26 42.908l34.12.649 3.197-2.695zM1290.544 657.46l-24.897-4.336 13.881 22.145 11.231-15.476-.215-2.332zM27.221 326.968l5.42-10.262c-3.852.967-7.736 1.943-11.644 2.927l5.172 7.1 1.052.235zM667.875 576.507l.745 26.418c6.555-6.232 13.16-12.516 19.811-18.837l-18.21-8.288-2.346.707z" transform="translate(0 -125) translate(7 15.957)"/>
                    <path fill="#00A7F9" d="M1860.951 152.583L1860.879 151.791 1859.861 152.17zM727.939 623.576L728.725 626.645 732.489 624.515zM1290.441 601.862L1290.977 601.712 1290.591 601.06zM1722.159 525.327L1721.004 523.07 1718.446 525.392z" transform="translate(0 -125) translate(7 15.957)"/>
                    <path fill="#FFF" d="M1714.343 233.712c-3.347 1.383-6.688 2.766-10.029 4.142-.222 1.687-.44 3.367-.666 5.048l9.004 4.227 1.691-13.417zM1154.914 470.677l.041 14.694c1.995 1.144 3.99 2.288 5.984 3.429l9.927-9.108-15.952-9.015zM1785.974 677.984c2.538-1.599 5.073-3.197 7.61-4.785-.054-1.407-.112-2.813-.163-4.217l-7.945-2.192.498 11.194zM641.347 809.29c-.997.318-1.994.639-2.992.956-.106.482-.208.963-.314 1.441l2.5 1.435.806-3.832zM276.489 347.406c.215-.946.434-1.892.649-2.834-.331-.311-.663-.622-.998-.93l-2.322 1.312 2.67 2.452zM582.207 763.13c1.472.34 2.941.675 4.42 1.017l-.785-1.387-3.635.37zM321.034 681.739c3.74-2.558 7.484-5.116 11.238-7.68l-4.66-1.097-6.578 8.777zM1527.83 561.164c-1.674-3.207-3.347-6.417-5.031-9.634l-1.309 3.586 6.34 6.048z" transform="translate(0 -125) translate(7 15.957)"/>
                    <path fill="#00498A" d="M55.438 371.934l-34.144 30.078c9.916-1.366 19.904-2.742 29.94-4.122l4.204-25.956zM1674.028 580.62l-5.882 7.659c2.008-.69 4.034-1.383 6.066-2.08l-.184-5.58zM116.433 804.254l5.838-16.924c-3.13 2.394-6.279 4.802-9.442 7.226l3.604 9.698zM865.54 608.812l18.63-31.123c-7.197 3.438-14.448 6.904-21.734 10.391l3.105 20.732zM94.793 581.77l-10.391-.943c1.786 1.438 3.59 2.879 5.404 4.334l4.987-3.391z" transform="translate(0 -125) translate(7 15.957)"/>
                    <path fill="#00A7F9" d="M633.015 347.376c1.903 1.267 3.798 2.523 5.677 3.77l.881.003c.11-2.032.216-4.07.325-6.112l-.758-2.681-6.125 5.02zM825.03 305.243c.615 4.713 1.223 9.405 1.828 14.063l1.199 1.383 10.045-7.834 3.177-4.853-16.249-2.759zM934.81 719.412c-8.898-5.241-17.751-10.46-26.54-15.643l-3.973.208c.007 9.19.014 18.417.024 27.664l4.068 11.918 26.421-24.147zM1137.438 637.348c-.331-8.24-.652-16.439-.977-24.58l-1.861-2.578c-6.17 3.982-12.358 7.98-18.568 11.986l-6.241 7.888 27.647 7.284z" transform="translate(0 -125) translate(7 15.957)"/>
                    <path fill="#FFF" d="M1415.08 666.992l-.629-16.006c-1.27.465-2.545.932-3.822 1.404l-1.233 12.249c1.892.782 3.788 1.567 5.684 2.353M1103.624 250.166l-8.225-2.882-.058 2.213 5.954 3.074c.775-.8 1.55-1.602 2.33-2.405M1824.308 713.803l1.315 23.15c1.831-.707 3.662-1.417 5.496-2.124l1.476-17.761c-2.76-1.086-5.52-2.176-8.287-3.265M1333.061 860.144l1.882-17.007c-1.42.287-2.838.578-4.263.871l-3.248 12.748 5.63 3.388" transform="translate(0 -125) translate(7 15.957)"/>
                </g>
            </g>
        </g>
    </g>
</svg>
